<svg xmlns="http://www.w3.org/2000/svg" viewBox="0 0 400 266"><title>swift wolf caricature</title><defs><radialGradient id="glow"><stop stop-color="#55412a" stop-opacity=".3"/><stop offset="1" stop-color="#101014" stop-opacity="0"/></radialGradient></defs><rect width="400" height="266" fill="#0b0a0c"/><circle cx="202" cy="133" r="125" fill="url(#glow)"/><ellipse cx="13" cy="12" rx="1.6" ry="1.6" fill="#eee0b02b"/><ellipse cx="96" cy="59" rx="1" ry="1" fill="#eee0b02b"/><ellipse cx="179" cy="106" rx="1" ry="1" fill="#eee0b02b"/><ellipse cx="262" cy="153" rx="1.6" ry="1.6" fill="#eee0b02b"/><ellipse cx="345" cy="200" rx="1" ry="1" fill="#eee0b02b"/><ellipse cx="53" cy="20" rx="1" ry="1" fill="#eee0b02b"/><ellipse cx="136" cy="67" rx="1.6" ry="1.6" fill="#eee0b02b"/><ellipse cx="219" cy="114" rx="1" ry="1" fill="#eee0b02b"/><ellipse cx="302" cy="161" rx="1" ry="1" fill="#eee0b02b"/><ellipse cx="385" cy="208" rx="1.6" ry="1.6" fill="#eee0b02b"/><ellipse cx="93" cy="28" rx="1" ry="1" fill="#eee0b02b"/><ellipse cx="176" cy="75" rx="1" ry="1" fill="#eee0b02b"/><ellipse cx="259" cy="122" rx="1.6" ry="1.6" fill="#eee0b02b"/><ellipse cx="342" cy="169" rx="1" ry="1" fill="#eee0b02b"/><ellipse cx="50" cy="216" rx="1" ry="1" fill="#eee0b02b"/><ellipse cx="133" cy="36" rx="1.6" ry="1.6" fill="#eee0b02b"/><ellipse cx="216" cy="83" rx="1" ry="1" fill="#eee0b02b"/><ellipse cx="299" cy="130" rx="1" ry="1" fill="#eee0b02b"/><ellipse cx="382" cy="177" rx="1.6" ry="1.6" fill="#eee0b02b"/><ellipse cx="90" cy="224" rx="1" ry="1" fill="#eee0b02b"/><ellipse cx="173" cy="44" rx="1" ry="1" fill="#eee0b02b"/><ellipse cx="256" cy="91" rx="1.6" ry="1.6" fill="#eee0b02b"/><ellipse cx="339" cy="138" rx="1" ry="1" fill="#eee0b02b"/><ellipse cx="47" cy="185" rx="1" ry="1" fill="#eee0b02b"/><path d="M115 151 L59 112 L70 153 L112 174" fill="#ad9270" stroke="none" stroke-width="3" stroke-linecap="round" stroke-linejoin="round"/><rect x="137" y="169" width="17" height="60" fill="#625646"/><ellipse cx="145" cy="229" rx="14" ry="7" fill="#17171e"/><rect x="162" y="169" width="17" height="60" fill="#625646"/><ellipse cx="170" cy="229" rx="14" ry="7" fill="#242329"/><rect x="234" y="169" width="17" height="60" fill="#625646"/><ellipse cx="242" cy="229" rx="14" ry="7" fill="#17171e"/><rect x="259" y="169" width="17" height="60" fill="#625646"/><ellipse cx="267" cy="229" rx="14" ry="7" fill="#242329"/><ellipse cx="191" cy="157" rx="86" ry="36" fill="#ad9270"/><path d="M234 147 L251 99 L278 109 L282 155" fill="#ad9270" stroke="none" stroke-width="3" stroke-linecap="round" stroke-linejoin="round"/><path d="M250 101 L249 70 L266 91 L278 72 L287 111" fill="#625646" stroke="none" stroke-width="3" stroke-linecap="round" stroke-linejoin="round"/><ellipse cx="273" cy="117" rx="29" ry="23" fill="#ad9270"/><path d="M285 113 L332 124 L323 141 L280 137" fill="#ad9270" stroke="none" stroke-width="3" stroke-linecap="round" stroke-linejoin="round"/><ellipse cx="330" cy="125" rx="6" ry="5" fill="#625646"/><ellipse cx="280" cy="110" rx="7" ry="8" fill="#e9e6d6"/><ellipse cx="282" cy="110" rx="3" ry="4" fill="#17181c"/><path d="M235 139 L246 124 L242 151 L255 140 L251 161" fill="#625646" stroke="none" stroke-width="3" stroke-linecap="round" stroke-linejoin="round"/></svg>
